<?xml version="1.0" standalone="no"?>
<!DOCTYPE svg PUBLIC "-//W3C//DTD SVG 20010904//EN"
 "http://www.w3.org/TR/2001/REC-SVG-20010904/DTD/svg10.dtd">
<svg version="1.0" xmlns="http://www.w3.org/2000/svg"
 width="512.000000pt" height="512.000000pt" viewBox="0 0 512.000000 512.000000"
 preserveAspectRatio="xMidYMid meet">

<g transform="translate(0.000000,512.000000) scale(0.100000,-0.100000)"
fill="#000000" stroke="none">
<path d="M2810 4514 c-223 -101 -418 -189 -433 -196 -27 -13 -19 -17 243 -135
l271 -122 157 70 c86 39 160 74 165 78 4 4 6 115 5 247 l-3 240 -405 -182z"/>
<path d="M1475 3910 c-231 -105 -429 -193 -440 -196 -13 -3 -95 29 -220 86
-110 49 -208 93 -218 96 -16 5 -17 -9 -15 -242 l3 -247 215 -97 215 -97 50 23
c27 12 221 99 430 194 209 95 385 174 391 177 7 2 87 -30 179 -71 l167 -76
269 122 c148 67 266 125 262 129 -10 10 -849 389 -860 389 -4 0 -197 -86 -428
-190z"/>
<path d="M3441 3603 l-1094 -494 -36 15 c-20 8 -120 53 -223 100 l-188 85 0
-248 0 -248 213 -97 c116 -53 217 -96 223 -96 11 0 2191 984 2200 993 2 2 3
112 2 244 l-3 241 -1094 -495z"/>
<path d="M1693 1501 c-601 -272 -1093 -497 -1093 -500 0 -3 94 -48 210 -100
l209 -93 435 196 c239 108 440 196 445 196 12 0 362 -157 476 -213 39 -19 143
-67 233 -107 89 -40 162 -76 162 -80 0 -4 -193 -95 -430 -202 l-430 -195 215
-96 215 -97 228 101 c265 118 494 222 1052 476 223 102 428 194 455 205 102
40 455 202 455 208 0 8 -409 193 -425 193 -5 0 -205 -89 -444 -197 l-434 -197
-436 197 c-240 108 -439 199 -444 203 -4 4 34 26 85 48 509 224 778 346 778
352 0 3 -96 49 -213 101 l-212 95 -1092 -494z"/>
</g>
</svg>
